
<svg width="29px" height="29px" viewBox="0 0 29 29" version="1.1" xmlns="http://www.w3.org/2000/svg" xmlns:xlink="http://www.w3.org/1999/xlink">
    <!-- Generator: Sketch 45.2 (43514) - http://www.bohemiancoding.com/sketch -->
    <desc>Created with Sketch.</desc>
    <defs></defs>
    <g id="Page-1" stroke="none" stroke-width="1" fill="none" fill-rule="evenodd">
        <g id="缩小normal" transform="translate(-6.000000, -6.000000)" fill="#FFFFFF">
            <g id="Group-2">
                <g transform="translate(6.000000, 5.000000)">
                    <g id="Group" transform="translate(0.000000, 16.000000)">
                        <rect id="Rectangle-6" x="1" y="0" width="13" height="4" rx="2"></rect>
                        <rect id="Rectangle-6-Copy" transform="translate(12.000000, 6.500000) rotate(-90.000000) translate(-12.000000, -6.500000) " x="5.5" y="4.5" width="13" height="4" rx="2"></rect>
                        <rect id="Rectangle-6-Copy-2" transform="translate(6.010408, 8.010408) rotate(-45.000000) translate(-6.010408, -8.010408) " x="-0.48959236" y="6.01040764" width="13" height="4" rx="2"></rect>
                    </g>
                    <g id="Group-Copy" transform="translate(22.000000, 7.500000) scale(-1, -1) translate(-22.000000, -7.500000) translate(15.000000, 0.000000)">
                        <rect id="Rectangle-6" x="1" y="0" width="13" height="4" rx="2"></rect>
                        <rect id="Rectangle-6-Copy" transform="translate(12.000000, 6.500000) rotate(-90.000000) translate(-12.000000, -6.500000) " x="5.5" y="4.5" width="13" height="4" rx="2"></rect>
                        <rect id="Rectangle-6-Copy-2" transform="translate(6.010408, 8.010408) rotate(-45.000000) translate(-6.010408, -8.010408) " x="-0.48959236" y="6.01040764" width="13" height="4" rx="2"></rect>
                    </g>
                </g>
            </g>
        </g>
    </g>
</svg>