
<svg width="32px" height="25px" viewBox="0 0 32 25" version="1.1" xmlns="http://www.w3.org/2000/svg" xmlns:xlink="http://www.w3.org/1999/xlink">
    <!-- Generator: Sketch 45.2 (43514) - http://www.bohemiancoding.com/sketch -->
    <desc>Created with Sketch.</desc>
    <defs></defs>
    <g id="Page-1" stroke="none" stroke-width="1" fill="none" fill-rule="evenodd">
        <g id="声音normal" transform="translate(-4.000000, -8.000000)" fill="#FFFFFF">
            <g id="声音-hover">
                <g id="声音（大）" transform="translate(4.000000, 8.000000)">
                    <path d="M12.070967,0.619075265 L6.03548348,5.77441263 L3.01774174,5.77441263 C1.42010121,5.77441263 0,7.10769585 0,8.79650906 L0,16.3517501 C0,18.0405633 1.33136203,19.3738465 3.01774174,19.3738465 L5.6804658,19.3738465 L12.070967,24.4403167 C13.5798378,25.5958044 15,24.8847444 15,23.0181357 L15,2.04122572 C15,0.0857497703 13.4910377,-0.625310199 12.070967,0.619075265 L12.070967,0.619075265 Z M12,20.6066981 C12,21.0894717 11.9333694,21.0894717 11.6000336,20.8136078 L6.66667175,16.8134161 C6.60001831,16.744462 6.46668854,16.6754842 6.33333588,16.6754842 L4.1333374,16.6754842 C3.53334198,16.6754842 3,16.1237802 3,15.5030273 L3,9.64074278 C3,9.02003726 3.53331909,8.46828587 4.1333374,8.46828587 L6.60001831,8.46828587 C6.73334808,8.46828587 6.86667786,8.39930807 6.93335419,8.33035394 L11.6000336,4.19227771 C11.9333923,3.91639017 11.9333923,3.91639017 11.9333923,4.33020964 L11.9333923,20.6066981 L12,20.6066981 L12,20.6066981 Z" id="Fill-2"></path>
                </g>
                <path d="M21,14 C24.0898509,14 27,16.9101491 27,21 C27,24.0898509 24.0898509,27 21,27 L21,24.8739825 C22.7252272,24.4299397 24,22.8638394 24,21 C24,19.1361606 22.7252272,17.5700603 21,17.1260175 L21,14 Z" id="Combined-Shape"></path>
                <path d="M25,9 C31.0781948,9.3151737 35.9095877,14.3433707 35.9095877,20.5 C35.9095877,26.6566293 31.0781948,31.6848263 25,32 L25,29 C29.493681,29 33.1365292,25.1944204 33.1365292,20.5 C33.1365292,15.8055796 29.493681,12 25,12 L25,9 Z" id="Combined-Shape-Copy"></path>
            </g>
        </g>
    </g>
</svg>