<?xml version="1.0" standalone="no"?><!DOCTYPE svg PUBLIC "-//W3C//DTD SVG 1.1//EN" "http://www.w3.org/Graphics/SVG/1.1/DTD/svg11.dtd"><svg t="1493379090661" class="icon" style="" viewBox="0 0 1024 1024" version="1.1" xmlns="http://www.w3.org/2000/svg" p-id="1305" xmlns:xlink="http://www.w3.org/1999/xlink" width="32" height="32"><defs><style type="text/css"></style></defs><path d="M511.666402 834.948273c-35.152615 0-69.310575-3.436262-102.136192-9.729595l-89.500407 90.844008c-7.352455 7.416923-16.543791 12.053524-27.574009 12.053524-21.139459 0-38.60218-17.613146-38.60218-38.935778L253.853615 769.593799l3.050476 0C139.598408 702.865026 62.677505 591.388095 62.677505 465.066061c0-204.282616 201.01827-369.882212 448.989921-369.882212s448.990944 165.599595 448.990944 369.882212C960.65837 669.344584 759.638053 834.948273 511.666402 834.948273zM339.791893 416.858106c-26.65508 0-47.793516 21.322631-47.793516 48.207955s21.139459 48.200792 47.793516 48.200792c25.736151 0 47.793516-21.316491 47.793516-48.200792S366.446973 416.858106 339.791893 416.858106zM511.666402 416.858106c-26.65508 0-47.793516 21.322631-47.793516 48.207955s21.139459 48.200792 47.793516 48.200792c26.65508 0 47.793516-21.316491 47.793516-48.200792S538.321482 416.858106 511.666402 416.858106zM683.542958 416.858106c-26.65508 0-47.795563 21.322631-47.795563 48.207955s21.140483 48.200792 47.795563 48.200792c26.653033 0 47.793516-21.316491 47.793516-48.200792S710.197014 416.858106 683.542958 416.858106z" p-id="1306" fill="#ffffff"></path></svg>