<?xml version="1.0" standalone="no"?><!DOCTYPE svg PUBLIC "-//W3C//DTD SVG 1.1//EN" "http://www.w3.org/Graphics/SVG/1.1/DTD/svg11.dtd"><svg t="1493379082232" class="icon" style="" viewBox="0 0 1024 1024" version="1.1" xmlns="http://www.w3.org/2000/svg" p-id="1103" xmlns:xlink="http://www.w3.org/1999/xlink" width="32" height="32"><defs><style type="text/css"></style></defs><path d="M931.748946 590.599126c-38.052664-31.070646-86.773296-49.729611-139.888004-49.729611-121.720226 0-220.395596 97.965196-220.395596 218.817658 0 23.301705 3.704368 45.737694 10.499122 66.796312-23.224957 3.044336-47.034223 4.6673-71.319325 4.6673-35.008328 0-69.02712-3.368724-101.717659-9.538237l-89.134063 89.059362c-7.323802 7.268544-16.477276 11.816117-27.460422 11.816117-21.053502 0-38.445614-17.266245-38.445614-38.172391L253.887384 767.081583l3.035126 0C140.099828 701.663664 63.495126 592.382748 63.495126 468.541209c0-200.264093 200.195531-362.611621 447.15104-362.611621 246.953462 0 447.148993 162.347528 447.148993 362.611621C957.795159 511.37783 948.570054 552.455387 931.748946 590.599126zM339.473645 421.282882c-26.545586 0-47.599088 20.903076-47.599088 47.258327 0 26.353205 21.053502 47.25935 47.599088 47.25935 25.628704 0 47.598065-20.906146 47.598065-47.25935C387.071709 442.185958 366.019231 421.282882 339.473645 421.282882zM510.645143 421.282882c-26.545586 0-47.599088 20.903076-47.599088 47.258327 0 26.353205 21.053502 47.25935 47.599088 47.25935 26.544563 0 47.598065-20.906146 47.598065-47.25935C558.243207 442.185958 537.189705 421.282882 510.645143 421.282882zM681.81664 421.282882c-26.545586 0-47.598065 20.903076-47.598065 47.258327 0 26.353205 21.052478 47.25935 47.598065 47.25935 26.545586 0 47.598065-20.906146 47.598065-47.25935C729.414705 442.185958 708.362226 421.282882 681.81664 421.282882zM791.860942 598.826508c89.705068 0 162.018024 71.798233 162.018024 160.859641s-72.312956 160.859641-162.018024 160.859641-162.017-71.798233-162.017-160.859641S702.155874 598.826508 791.860942 598.826508zM791.860942 866.014826c59.498092 0 108.012016-48.168046 108.012016-107.237373 0-15.448854-3.66139-30.900777-10.070356-44.532239L722.29454 840.571341C740.601488 856.020194 765.315356 866.014826 791.860942 866.014826zM691.171706 796.945751l164.763554-124.504642c-18.306948-12.722766-40.276309-20.901029-64.074318-20.901029-59.498092 0-108.012016 47.254234-108.012016 107.237373C683.848926 772.409938 686.59548 785.130657 691.171706 796.945751z" p-id="1104" fill="#ffffff"></path></svg>