<svg 
 xmlns="http://www.w3.org/2000/svg"
 xmlns:xlink="http://www.w3.org/1999/xlink"
 width="97px" height="84px">
<path fill="rgba(255, 255, 255, .7)"
 d="M93.000,84.000 L4.000,84.000 C1.791,84.000 0.000,82.209 0.000,80.000 L0.000,4.000 C0.000,1.791 1.791,-0.000 4.000,-0.000 L93.000,-0.000 C95.209,-0.000 97.000,1.791 97.000,4.000 L97.000,80.000 C97.000,82.209 95.209,84.000 93.000,84.000 ZM24.000,15.000 L12.000,15.000 L12.000,26.000 L24.000,26.000 L24.000,15.000 ZM24.000,37.000 L12.000,37.000 L12.000,48.000 L24.000,48.000 L24.000,37.000 ZM24.000,59.000 L12.000,59.000 L12.000,71.000 L24.000,71.000 L24.000,59.000 ZM62.000,40.000 L42.000,29.000 L39.000,29.000 L38.000,30.000 L38.000,56.000 L39.000,57.000 L40.000,57.000 L62.000,43.000 L62.000,40.000 ZM85.000,15.000 L73.000,15.000 L73.000,26.000 L85.000,26.000 L85.000,15.000 ZM85.000,37.000 L73.000,37.000 L73.000,48.000 L85.000,48.000 L85.000,37.000 ZM85.000,59.000 L73.000,59.000 L73.000,71.000 L85.000,71.000 L85.000,59.000 Z"/>
</svg>