
<svg width="731px" height="884px" viewBox="0 0 731 884" version="1.1" xmlns="http://www.w3.org/2000/svg" xmlns:xlink="http://www.w3.org/1999/xlink">
    <!-- Generator: Sketch 44.1 (41455) - http://www.bohemiancoding.com/sketch -->
    <desc>Created with Sketch.</desc>
    <defs></defs>
    <g id="Page-1" stroke="#ffffff" stroke-width="1" fill="none" fill-rule="evenodd">
        <g id="771-单线，刷新" fill-rule="nonzero" fill="#ffffff">
            <path d="M705.118558,492.414203 C690.989769,492.414203 679.535903,503.868069 679.535903,517.996858 C679.535903,691.060449 538.737157,831.859195 365.673566,831.859195 C192.608952,831.859195 51.812252,691.060449 51.812252,517.996858 C51.812252,355.038416 176.652538,220.706965 335.71423,205.573289 L223.600803,317.686716 C213.610265,327.677254 213.610265,343.875168 223.600803,353.865707 C228.596584,358.860465 235.143697,361.358355 241.69081,361.358355 C248.237923,361.358355 254.785036,358.860465 259.780817,353.865707 L414.737005,198.909519 C424.727543,188.918981 424.727543,172.721067 414.737005,162.730528 L259.779793,7.774341 C249.788231,-2.216197 233.591341,-2.216197 223.600802,7.774341 C213.610264,17.764879 213.610264,33.962793 223.600802,43.953332 L333.990981,154.343511 C295.901478,157.602741 258.882353,166.733702 223.581359,181.664763 C180.111312,200.051529 141.076273,226.367894 107.560949,259.883219 C74.045625,293.398544 47.729259,332.432559 29.342493,375.903629 C10.301835,420.921939 0.646941,468.729781 0.646941,517.995834 C0.646941,567.263934 10.301835,615.06973 29.342493,660.089063 C47.729259,703.558087 74.045624,742.594149 107.560949,776.109473 C141.076274,809.624797 180.110289,835.941163 223.581359,854.326906 C268.599669,873.368588 316.406488,883.023482 365.673564,883.023482 C414.941664,883.023482 462.74746,873.368588 507.766793,854.326906 C551.235817,835.941164 590.271879,809.624798 623.787203,776.109473 C657.302527,742.594148 683.618893,703.55911 702.004636,660.089063 C721.046318,615.06973 730.701212,567.262911 730.701212,517.995834 C730.701213,503.868069 719.24837,492.414203 705.118558,492.414203 Z" id="Shape"></path>
        </g>
        <text id="10" font-family="Helvetica" font-size="288" font-weight="normal" fill="#ffffff">
            <tspan x="211" y="634">10</tspan>
        </text>
    </g>
</svg>