
<svg width="107px" height="101px" viewBox="0 0 107 101" version="1.1" xmlns="http://www.w3.org/2000/svg" xmlns:xlink="http://www.w3.org/1999/xlink">
    <!-- Generator: Sketch 44.1 (41455) - http://www.bohemiancoding.com/sketch -->
    <desc>Created with Sketch.</desc>
    <defs></defs>
    <g id="Group" transform="translate(1.000000, 0.000000)" stroke="#FFFFFF">
        <polygon id="Path" fill="#ffffff" points="0.407316446 30 27.6500779 30 57.3737293 2.84217094e-14 58.4762532 100 27.6500779 70 0.407316446 70"></polygon>
        <path d="M63.6116505,5.00975239 C69.7079275,4.78612057 76.6549251,8.40856146 84.4526431,15.877075 C96.1492201,27.0798454 100.970874,34.7975125 100.970874,50.9608558 C100.970874,67.1241991 96.2887225,73.7907482 84.4526431,83.8306724 C76.5619234,90.5239552 69.6149259,94.0320644 63.6116505,94.355" id="外环" stroke-width="10"></path>
        <path d="M65.8505699,29.4929195 C68.5369434,29.3931169 71.5981938,31.0097416 75.034321,34.3427934 C80.1885118,39.3423712 82.3132123,42.7866154 82.3132123,50 C82.3132123,57.2133846 80.2499847,60.1885354 75.034321,64.6691576 C71.5572119,67.656239 68.4959615,69.2218397 65.8505699,69.3659595" id="内环" stroke-width="10"></path>
    </g>
</svg>